# Created by Kenney (www.kenney.nl)

mtllib neck.mtl

g mergedBlocks

v 0.183 0.992 -1.8863
v 0.183 0.992 -5.1795
v -0.18 0.992 -1.8863
v -0.18 0.992 -5.1795
v -0.18 1.02 -5.1795
v -0.18 1.02 -1.8863
v 0.183 1.02 -5.1795
v 0.183 1.02 -1.8863
v 0.0807653 0.8839601 -5.231801
v 0.09205737 0.8646629 -4.88085
v 0.1133803 0.8743129 -4.903502
v 0.09980937 0.8913084 -5.231801
v 0.1635085 0.9500702 -5.231801
v 0.1833569 0.9454815 -4.991092
v 0.1883425 0.9625881 -5.00137
v 0.168413 0.9648141 -5.231801
v 0.03877474 0.8748339 -5.231801
v 0.04476373 0.8514361 -4.833351
v 0.06905399 0.8569935 -4.857332
v 0.06030373 0.8784371 -5.231801
v 0.1900002 0.98 -5.00872
v 0.1704002 0.9799999 -5.231801
v 0.1557708 0.9360205 -5.231801
v 0.1751286 0.9289727 -4.978062
v 0.01654673 0.8732122 -5.231801
v 0.01960221 0.8480857 -4.809316
v -0.006000049 0.8469997 -4.78564
v -0.005999997 0.8735997 -5.231801
v 0.19 0.9800001 -3.224079
v 0.1883423 0.9625883 -3.231429
v 0.1833566 0.9454817 -3.241707
v 0.1751284 0.9289729 -3.254738
v 0.1637985 0.9133443 -4.962503
v 0.1495604 0.8988637 -4.944681
v 0.1637982 0.9133445 -3.270297
v 0.1495602 0.8988639 -3.288118
v 0.01960205 0.8480858 -3.423483
v -0.006000213 0.8469998 -3.447159
v 0.1133801 0.8743131 -3.329297
v 0.09205719 0.864663 -3.35195
v 0.06905381 0.8569937 -3.375468
v 0.04476355 0.8514362 -3.399449
v 0.1326577 0.8857788 -3.307898
v 0.1326579 0.8857786 -4.924901
v 0.08076503 0.8839603 -3.001058
v 0.0998091 0.8913087 -3.001064
v 0.145332 0.9229055 -3.001058
v 0.1557706 0.9360207 -3.001049
v 0.1635083 0.9500704 -3.001035
v 0.03877448 0.8748341 -3.001035
v 0.06030346 0.8784373 -3.001049
v 0.1323712 0.9109492 -3.001064
v -0.006000265 0.8735999 -3.000999
v 0.01654646 0.8732124 -3.001019
v 0.1171098 0.9003566 -3.001066
v 0.1684127 0.9648143 -3.001019
v 0.1704 0.9800001 -3.000999
v 0.1171101 0.9003564 -5.231801
v 0.1453323 0.9229053 -5.231801
v 0.1323714 0.9109491 -5.231801
v -0.08076503 0.8839601 -3.000999
v -0.09205719 0.8646629 -3.35195
v -0.1133801 0.8743129 -3.329297
v -0.0998091 0.8913084 -3.000999
v -0.1635083 0.9500702 -3.000999
v -0.1833566 0.9454815 -3.241707
v -0.1883423 0.9625881 -3.231429
v -0.1684127 0.9648141 -3.000999
v -0.03877448 0.8748339 -3.000999
v -0.04476355 0.8514361 -3.399449
v -0.06905381 0.8569935 -3.375468
v -0.06030346 0.8784371 -3.000999
v -0.19 0.98 -3.224079
v -0.1704 0.9799999 -3.000999
v -0.1557706 0.9360205 -3.000999
v -0.1751284 0.9289727 -3.254738
v -0.01654646 0.8732122 -3.000999
v -0.01960205 0.8480857 -3.423483
v 0.006000213 0.8469997 -3.447159
v 0.006000265 0.8735997 -3.000999
v -0.1900002 0.9800001 -5.00872
v -0.1883425 0.9625883 -5.00137
v -0.1833569 0.9454817 -4.991092
v -0.1751286 0.9289729 -4.978062
v -0.1637982 0.9133443 -3.270297
v -0.1495602 0.8988637 -3.288118
v -0.1637985 0.9133445 -4.962503
v -0.1495604 0.8988639 -4.944681
v -0.01960221 0.8480858 -4.809316
v 0.006000049 0.8469998 -4.78564
v -0.1133803 0.8743131 -4.903502
v -0.09205737 0.864663 -4.88085
v -0.06905399 0.8569937 -4.857332
v -0.04476373 0.8514362 -4.833351
v -0.1326579 0.8857788 -4.924901
v -0.1326577 0.8857786 -3.307898
v -0.0807653 0.8839603 -5.231741
v -0.09980937 0.8913087 -5.231735
v -0.1453323 0.9229055 -5.231741
v -0.1557708 0.9360207 -5.231751
v -0.1635085 0.9500704 -5.231764
v -0.03877474 0.8748341 -5.231764
v -0.06030373 0.8784373 -5.231751
v -0.1323714 0.9109492 -5.231735
v 0.005999997 0.8735999 -5.231801
v -0.01654673 0.8732124 -5.231781
v -0.1171101 0.9003566 -5.231733
v -0.168413 0.9648143 -5.231781
v -0.1704002 0.9800001 -5.231801
v -0.1171098 0.9003564 -3.000999
v -0.145332 0.9229053 -3.000999
v -0.1323712 0.9109491 -3.000999
v -0.006000265 0.9800001 -3.000999
v -0.005999997 0.9799999 -5.231801
v 0.005999997 0.9800001 -5.231801
v 0.006000265 0.9799999 -3.000999

vn 0 -1 0
vn -1 0 0
vn 0 0 -1
vn 0 0 1
vn 1 0 0
vn 0 1 0
vn 0.3102121 -0.9486277 -0.06224006
vn 0.3020501 -0.9512743 -0.06199153
vn 0.4014641 -0.9136413 -0.06392292
vn 0.4126347 -0.9086387 -0.06409594
vn 0.9119239 -0.4018602 -0.08308476
vn 0.9063381 -0.4144615 -0.08229811
vn 0.9692155 -0.2307709 -0.08582567
vn 0.9707873 -0.2239413 -0.08615299
vn 0.1187455 -0.9911124 -0.05996389
vn 0.1165095 -0.9913737 -0.06003116
vn 0.2075356 -0.9763373 -0.06078042
vn 0.2128167 -0.9751956 -0.06084875
vn 0.9877077 -0.1300458 -0.08672687
vn 0.9878045 -0.1292669 -0.08678927
vn 0.8257195 -0.5585943 -0.07848413
vn 0.8160487 -0.5726735 -0.07816273
vn 0.02727088 -0.9978569 -0.05948083
vn 0.02814678 -0.9978229 -0.05964288
vn -0.01269135 -0.9981471 -0.05950937
vn -0.01585934 -0.9981133 -0.05931536
vn 0.9954984 -0.09477811 1.269584E-07
vn 0.9823161 -0.1872298 1.334693E-07
vn 0.9314991 -0.3637437 1.428428E-07
vn 0.8555634 -0.5176981 1.472497E-07
vn 0.7639975 -0.6452191 1.474824E-07
vn 0.6648861 -0.7469447 1.445606E-07
vn 0.08939853 -0.9959959 9.772987E-08
vn 0.04238113 -0.9991015 9.239646E-08
vn 0.4637882 -0.8859462 1.327397E-07
vn 0.3663521 -0.9304762 1.250174E-07
vn 0.2717579 -0.9623657 1.165287E-07
vn 0.1796668 -0.9837275 1.074181E-07
vn 0.5637673 -0.8259337 1.394117E-07
vn 0.3022604 -0.9511995 0.06211448
vn 0.3107184 -0.9484693 0.06212768
vn 0.4119297 -0.9089652 0.06400021
vn 0.4007254 -0.9139584 0.06402411
vn 0.7289065 -0.6806186 0.07384904
vn 0.8277237 -0.5556543 0.0782421
vn 0.7156852 -0.6944886 0.07402872
vn 0.8174317 -0.5706514 0.07850095
vn 0.9114575 -0.4030343 0.08251489
vn 0.9056113 -0.4159447 0.08281347
vn 0.1168587 -0.991337 0.05995894
vn 0.1190806 -0.9910665 0.06005698
vn 0.2132284 -0.9751055 0.06084974
vn 0.2078362 -0.9762725 0.06079629
vn 0.6233145 -0.7788437 0.06986927
vn 0.6091945 -0.7899271 0.069981
vn -0.0171015 -0.9980814 0.05950564
vn 0.02755515 -0.9978392 0.05964628
vn -0.01369785 -0.998144 0.05933731
vn 0.02851249 -0.997821 0.05950013
vn 0.5165942 -0.8536391 0.06656478
vn 0.5033304 -0.8615215 0.06662738
vn 0.9702387 -0.2264123 0.0858741
vn 0.9877168 -0.1299755 0.08672918
vn 0.9686718 -0.2329562 0.08606016
vn 0.9876226 -0.1306594 0.08677353
vn 0.5165979 -0.8536379 -0.06655046
vn 0.503342 -0.8615159 -0.06661271
vn 0.7156988 -0.6944763 -0.07401311
vn 0.728928 -0.6805974 -0.07383293
vn 0.6092075 -0.7899184 -0.06996539
vn 0.6233277 -0.7788344 -0.06985362
vn -0.3102121 -0.9486277 0.06224013
vn -0.3020501 -0.9512743 0.0619916
vn -0.4014641 -0.9136413 0.06392302
vn -0.4126347 -0.9086387 0.06409604
vn -0.9119239 -0.4018602 0.08308498
vn -0.906338 -0.4144615 0.08229832
vn -0.9692155 -0.2307709 0.0858259
vn -0.9707873 -0.2239413 0.08615322
vn -0.1187455 -0.9911124 0.05996392
vn -0.1165095 -0.9913737 0.06003118
vn -0.2075356 -0.9763373 0.06078047
vn -0.2128167 -0.9751956 0.0608488
vn -0.9877077 -0.1300458 0.08672711
vn -0.9878044 -0.1292669 0.08678949
vn -0.8257195 -0.5585943 0.07848433
vn -0.8160487 -0.5726735 0.07816292
vn -0.02727089 -0.9978569 0.05948084
vn -0.0281468 -0.9978229 0.05964289
vn 0.01269133 -0.9981471 0.05950937
vn 0.01585933 -0.9981133 0.05931536
vn -0.9954984 -0.09477811 1.103869E-07
vn -0.9823161 -0.1872298 1.00733E-07
vn -0.9314991 -0.3637437 7.924385E-08
vn -0.8555634 -0.5176981 5.673249E-08
vn -0.7639975 -0.6452191 3.466874E-08
vn -0.6648861 -0.7469447 1.396061E-08
vn -0.08939853 -0.9959959 -7.64156E-08
vn -0.04238113 -0.9991015 -8.2292E-08
vn -0.4637882 -0.8859462 -2.216402E-08
vn -0.3663521 -0.9304762 -3.767225E-08
vn -0.2717579 -0.9623657 -5.173662E-08
vn -0.1796668 -0.9837275 -6.458223E-08
vn -0.5637673 -0.8259337 -4.999127E-09
vn -0.3022604 -0.9511995 -0.06211441
vn -0.3107184 -0.9484693 -0.06212761
vn -0.4119297 -0.9089652 -0.06400011
vn -0.4007254 -0.9139584 -0.06402402
vn -0.7289065 -0.6806186 -0.07384888
vn -0.8277237 -0.5556543 -0.07824191
vn -0.7156852 -0.6944886 -0.07402855
vn -0.8174318 -0.5706514 -0.07850076
vn -0.9114575 -0.4030343 -0.08251467
vn -0.9056113 -0.4159447 -0.08281326
vn -0.1168586 -0.991337 -0.05995892
vn -0.1190806 -0.9910665 -0.06005695
vn -0.2132284 -0.9751055 -0.06084969
vn -0.2078362 -0.9762725 -0.06079624
vn -0.6233145 -0.7788437 -0.06986912
vn -0.6091945 -0.7899271 -0.06998085
vn 0.01710152 -0.9980814 -0.05950564
vn -0.02755513 -0.9978392 -0.05964627
vn 0.01369786 -0.998144 -0.05933731
vn -0.02851248 -0.997821 -0.05950012
vn -0.5165942 -0.8536391 -0.06656465
vn -0.5033304 -0.8615215 -0.06662726
vn -0.9702387 -0.2264123 -0.08587386
vn -0.9877168 -0.1299755 -0.08672896
vn -0.9686718 -0.2329562 -0.08605993
vn -0.9876226 -0.1306594 -0.08677331
vn -0.5165979 -0.8536379 0.06655058
vn -0.503342 -0.8615159 0.06661282
vn -0.7156988 -0.6944763 0.07401329
vn -0.728928 -0.6805974 0.0738331
vn -0.6092075 -0.7899184 0.06996553
vn -0.6233277 -0.7788344 0.06985376
vn 0.0002938472 -0.0004963115 0.9999999
vn -1.192093E-07 -8.742276E-08 -1
vn -1 -1.04216E-14 -1.192093E-07
vn -1.042161E-14 1 -8.742278E-08
vn -0.0002936088 -0.0004963115 -0.9999999
vn -1.192093E-07 -8.742276E-08 1
vn 1 1.04216E-14 -1.192093E-07
vn -1.042161E-14 1 8.742278E-08

vt -0.183 1.8863
vt -0.183 5.1795
vt 0.18 1.8863
vt 0.18 5.1795
vt -5.1795 0.992
vt -5.1795 1.02
vt -1.8863 0.992
vt -1.8863 1.02
vt 0.18 0.992
vt -0.183 0.992
vt 0.18 1.02
vt -0.183 1.02
vt 0.183 0.992
vt -0.18 0.992
vt 0.183 1.02
vt -0.18 1.02
vt 5.1795 1.02
vt 5.1795 0.992
vt 1.8863 1.02
vt 1.8863 0.992
vt -0.183 -5.1795
vt -0.183 -1.8863
vt 0.18 -5.1795
vt 0.18 -1.8863
vt -0.0807653 5.231801
vt -0.09205737 4.88085
vt -0.1133803 4.903502
vt -0.09980937 5.231801
vt 5.231801 0.9500702
vt 4.991092 0.9454815
vt 5.00137 0.9625881
vt 5.231801 0.9648141
vt -0.03877474 5.231801
vt -0.04476373 4.833351
vt -0.06905399 4.857332
vt -0.06030372 5.231801
vt 5.00872 0.98
vt 5.231801 0.9799999
vt 5.231801 0.9360205
vt 4.978062 0.9289727
vt -0.01654673 5.231801
vt -0.01960221 4.809316
vt 0.006000052 4.78564
vt 0.005999998 5.231801
vt 3.224079 0.9800001
vt 3.231429 0.9625883
vt 3.241708 0.9454817
vt 3.254738 0.9289729
vt 4.962503 0.9133443
vt 4.944681 0.8988637
vt 3.270297 0.9133445
vt 3.288119 0.8988639
vt -0.01960204 3.423483
vt 0.006000211 3.447159
vt -0.1133801 3.329297
vt -0.09205719 3.35195
vt -0.06905381 3.375468
vt -0.04476355 3.399449
vt -0.1326577 3.307898
vt -0.1326579 4.924901
vt -0.1495602 3.288119
vt -0.1495603 4.944681
vt -0.08076503 3.001058
vt -0.0998091 3.001064
vt 3.001058 0.9229055
vt 3.001049 0.9360207
vt 3.001035 0.9500704
vt -0.03877448 3.001035
vt -0.06030346 3.001049
vt -0.1323712 3.001064
vt -0.145332 3.001058
vt -0.1637983 3.270297
vt 0.006000265 3.000999
vt -0.01654646 3.001019
vt -0.1171098 3.001066
vt 3.001019 0.9648143
vt 3.000999 0.9800001
vt -0.1171101 5.231801
vt 5.231801 0.9229053
vt -0.1453323 5.231801
vt -0.1637985 4.962503
vt -0.1323714 5.231801
vt 0.08076503 3.000999
vt 0.09205719 3.35195
vt 0.1133801 3.329297
vt 0.0998091 3.000999
vt -3.000999 0.9500702
vt -3.241708 0.9454815
vt -3.231429 0.9625881
vt -3.000999 0.9648141
vt 0.03877448 3.000999
vt 0.04476355 3.399449
vt 0.06905381 3.375468
vt 0.06030346 3.000999
vt -3.224079 0.98
vt -3.000999 0.9799999
vt -3.000999 0.9360205
vt -3.254738 0.9289727
vt 0.01654646 3.000999
vt 0.01960204 3.423483
vt -0.006000211 3.447159
vt -0.006000265 3.000999
vt -5.00872 0.9800001
vt -5.00137 0.9625883
vt -4.991092 0.9454817
vt -4.978062 0.9289729
vt -3.270297 0.9133443
vt -3.288119 0.8988637
vt -4.962503 0.9133445
vt -4.944681 0.8988639
vt 0.01960221 4.809316
vt -0.006000052 4.78564
vt 0.1133803 4.903502
vt 0.09205737 4.88085
vt 0.06905399 4.857332
vt 0.04476373 4.833351
vt 0.1326579 4.924901
vt 0.1326577 3.307898
vt 0.1495603 4.944681
vt 0.1495602 3.288119
vt 0.0807653 5.231741
vt 0.09980937 5.231735
vt -5.231741 0.9229055
vt -5.231751 0.9360207
vt -5.231764 0.9500704
vt 0.03877474 5.231764
vt 0.06030372 5.231751
vt 0.1323714 5.231735
vt 0.1453323 5.231741
vt 0.1637985 4.962503
vt -0.005999998 5.231801
vt 0.01654673 5.231781
vt 0.1171101 5.231733
vt -5.231781 0.9648143
vt -5.231801 0.9800001
vt 0.1171098 3.000999
vt -3.000999 0.9229053
vt 0.145332 3.000999
vt 0.1637983 3.270297
vt 0.1323712 3.000999
vt -0.006000265 0.8735999
vt -0.006000265 0.9800001
vt 0.01654646 0.8732124
vt 0.1704 0.9800001
vt 0.03877448 0.8748341
vt 0.06030346 0.8784373
vt 0.08076503 0.8839603
vt 0.0998091 0.8913087
vt 0.1171098 0.9003566
vt 0.1323712 0.9109492
vt 0.145332 0.9229055
vt 0.1557706 0.9360207
vt 0.1635083 0.9500704
vt 0.1684127 0.9648143
vt 0.005999998 0.9799999
vt 0.005999998 0.8735997
vt -0.1704002 0.9799999
vt -0.01654673 0.8732122
vt -0.03877474 0.8748339
vt -0.06030372 0.8784371
vt -0.0807653 0.8839601
vt -0.09980937 0.8913084
vt -0.1171101 0.9003564
vt -0.1323714 0.9109491
vt -0.1453323 0.9229053
vt -0.1557708 0.9360205
vt -0.1635085 0.9500702
vt -0.168413 0.9648141
vt -5.231801 0.9799999
vt -3.000999 0.9800001
vt -5.231801 0.8735997
vt -3.000999 0.8735999
vt -4.78564 0.8469997
vt -3.447159 0.8469998
vt -0.1704 -3.000999
vt 0.006000265 -3.000999
vt -0.19 -3.224079
vt 0.005999998 -5.231801
vt -0.1900002 -5.00872
vt -0.1704002 -5.231801
vt -0.005999998 0.8735999
vt -0.005999998 0.9800001
vt 0.01654673 0.8732124
vt 0.1704002 0.9800001
vt 0.03877474 0.8748341
vt 0.06030372 0.8784373
vt 0.0807653 0.8839603
vt 0.09980937 0.8913087
vt 0.1171101 0.9003566
vt 0.1323714 0.9109492
vt 0.1453323 0.9229055
vt 0.1557708 0.9360207
vt 0.1635085 0.9500704
vt 0.168413 0.9648143
vt 0.006000265 0.9799999
vt 0.006000265 0.8735997
vt -0.1704 0.9799999
vt -0.01654646 0.8732122
vt -0.03877448 0.8748339
vt -0.06030346 0.8784371
vt -0.08076503 0.8839601
vt -0.0998091 0.8913084
vt -0.1171098 0.9003564
vt -0.1323712 0.9109491
vt -0.145332 0.9229053
vt -0.1557706 0.9360205
vt -0.1635083 0.9500702
vt -0.1684127 0.9648141
vt 3.000999 0.9799999
vt 5.231801 0.9800001
vt 3.000999 0.8735997
vt 5.231801 0.8735999
vt 3.447159 0.8469997
vt 4.78564 0.8469998
vt 0.1704002 -5.231801
vt -0.005999998 -5.231801
vt 0.1900002 -5.00872
vt -0.006000265 -3.000999
vt 0.19 -3.224079
vt 0.1704 -3.000999

usemtl _defaultMat

f 3/3/1 2/2/1 1/1/1
f 2/2/1 3/3/1 4/4/1
f 3/7/2 5/6/2 4/5/2
f 5/6/2 3/7/2 6/8/2
f 5/11/3 2/10/3 4/9/3
f 2/10/3 5/11/3 7/12/3
f 8/15/4 3/14/4 1/13/4
f 3/14/4 8/15/4 6/16/4
f 8/19/5 2/18/5 7/17/5
f 2/18/5 8/19/5 1/20/5
f 5/23/6 8/22/6 7/21/6
f 8/22/6 5/23/6 6/24/6

usemtl shield

f 11/27/9 10/26/8 9/25/7
f 11/27/9 9/25/7 12/28/10
f 15/31/13 14/30/12 13/29/11
f 15/31/13 13/29/11 16/32/14
f 19/35/17 18/34/16 17/33/15
f 19/35/17 17/33/15 20/36/18
f 15/31/13 16/32/14 21/37/19
f 16/32/14 22/38/20 21/37/19
f 14/30/12 24/40/22 23/39/21
f 14/30/12 23/39/21 13/29/11
f 10/26/8 19/35/17 20/36/18
f 10/26/8 20/36/18 9/25/7
f 18/34/16 26/42/24 25/41/23
f 18/34/16 25/41/23 17/33/15
f 28/44/26 26/42/24 27/43/25
f 25/41/23 26/42/24 28/44/26
f 29/45/27 15/31/28 21/37/27
f 15/31/28 29/45/27 30/46/28
f 30/46/28 14/30/29 15/31/28
f 14/30/29 30/46/28 31/47/29
f 31/47/29 24/40/30 14/30/29
f 24/40/30 31/47/29 32/48/30
f 35/51/31 34/50/32 33/49/31
f 34/50/32 35/51/31 36/52/32
f 38/54/34 26/42/33 37/53/33
f 26/42/33 38/54/34 27/43/34
f 32/48/30 33/49/31 24/40/30
f 33/49/31 32/48/30 35/51/31
f 40/56/36 11/27/35 39/55/35
f 11/27/35 40/56/36 10/26/36
f 42/58/38 19/35/37 41/57/37
f 19/35/37 42/58/38 18/34/38
f 39/55/35 44/60/39 43/59/39
f 44/60/39 39/55/35 11/27/35
f 37/53/33 18/34/38 42/58/38
f 18/34/38 37/53/33 26/42/33
f 43/59/39 34/62/32 36/61/32
f 34/62/32 43/59/39 44/60/39
f 41/57/37 10/26/36 40/56/36
f 10/26/36 41/57/37 19/35/37
f 46/64/42 45/63/41 40/56/40
f 39/55/43 46/64/42 40/56/40
f 35/51/46 48/66/45 47/65/44
f 32/48/47 48/66/45 35/51/46
f 32/48/47 49/67/48 48/66/45
f 31/47/49 49/67/48 32/48/47
f 51/69/52 50/68/51 42/58/50
f 41/57/53 51/69/52 42/58/50
f 36/61/55 47/71/44 52/70/54
f 35/72/46 47/71/44 36/61/55
f 38/54/58 54/74/57 53/73/56
f 38/54/58 37/53/59 54/74/57
f 45/63/41 51/69/52 41/57/53
f 40/56/40 45/63/41 41/57/53
f 43/59/61 52/70/54 55/75/60
f 36/61/55 52/70/54 43/59/61
f 30/46/64 57/77/63 56/76/62
f 30/46/64 29/45/65 57/77/63
f 55/75/60 46/64/42 39/55/43
f 43/59/61 55/75/60 39/55/43
f 50/68/51 54/74/57 37/53/59
f 42/58/50 50/68/51 37/53/59
f 31/47/49 56/76/62 49/67/48
f 30/46/64 56/76/62 31/47/49
f 44/60/67 11/27/9 58/78/66
f 58/78/66 11/27/9 12/28/10
f 24/40/22 33/49/68 23/39/21
f 33/49/68 59/79/69 23/39/21
f 33/81/68 34/62/70 59/80/69
f 34/62/70 60/82/71 59/80/69
f 34/62/70 44/60/67 60/82/71
f 44/60/67 58/78/66 60/82/71
f 63/85/74 62/84/73 61/83/72
f 63/85/74 61/83/72 64/86/75
f 67/89/78 66/88/77 65/87/76
f 67/89/78 65/87/76 68/90/79
f 71/93/82 70/92/81 69/91/80
f 71/93/82 69/91/80 72/94/83
f 67/89/78 68/90/79 73/95/84
f 68/90/79 74/96/85 73/95/84
f 66/88/77 76/98/87 75/97/86
f 66/88/77 75/97/86 65/87/76
f 62/84/73 71/93/82 72/94/83
f 62/84/73 72/94/83 61/83/72
f 70/92/81 78/100/89 77/99/88
f 70/92/81 77/99/88 69/91/80
f 80/102/91 78/100/89 79/101/90
f 77/99/88 78/100/89 80/102/91
f 81/103/92 67/89/93 73/95/92
f 67/89/93 81/103/92 82/104/93
f 82/104/93 66/88/94 67/89/93
f 66/88/94 82/104/93 83/105/94
f 83/105/94 76/98/95 66/88/94
f 76/98/95 83/105/94 84/106/95
f 87/109/96 86/108/97 85/107/96
f 86/108/97 87/109/96 88/110/97
f 90/112/99 78/100/98 89/111/98
f 78/100/98 90/112/99 79/101/99
f 84/106/95 85/107/96 76/98/95
f 85/107/96 84/106/95 87/109/96
f 92/114/101 63/85/100 91/113/100
f 63/85/100 92/114/101 62/84/101
f 94/116/103 71/93/102 93/115/102
f 71/93/102 94/116/103 70/92/103
f 91/113/100 96/118/104 95/117/104
f 96/118/104 91/113/100 63/85/100
f 89/111/98 70/92/103 94/116/103
f 70/92/103 89/111/98 78/100/98
f 95/117/104 86/120/97 88/119/97
f 86/120/97 95/117/104 96/118/104
f 93/115/102 62/84/101 92/114/101
f 62/84/101 93/115/102 71/93/102
f 98/122/107 97/121/106 92/114/105
f 91/113/108 98/122/107 92/114/105
f 87/109/111 100/124/110 99/123/109
f 84/106/112 100/124/110 87/109/111
f 84/106/112 101/125/113 100/124/110
f 83/105/114 101/125/113 84/106/112
f 103/127/117 102/126/116 94/116/115
f 93/115/118 103/127/117 94/116/115
f 88/119/120 99/129/109 104/128/119
f 87/130/111 99/129/109 88/119/120
f 90/112/123 106/132/122 105/131/121
f 90/112/123 89/111/124 106/132/122
f 97/121/106 103/127/117 93/115/118
f 92/114/105 97/121/106 93/115/118
f 95/117/126 104/128/119 107/133/125
f 88/119/120 104/128/119 95/117/126
f 82/104/129 109/135/128 108/134/127
f 82/104/129 81/103/130 109/135/128
f 107/133/125 98/122/107 91/113/108
f 95/117/126 107/133/125 91/113/108
f 102/126/116 106/132/122 89/111/124
f 94/116/115 102/126/116 89/111/124
f 83/105/114 108/134/127 101/125/113
f 82/104/129 108/134/127 83/105/114
f 96/118/132 63/85/74 110/136/131
f 110/136/131 63/85/74 64/86/75
f 76/98/87 85/107/133 75/97/86
f 85/107/133 111/137/134 75/97/86
f 85/139/133 86/120/135 111/138/134
f 86/120/135 112/140/136 111/138/134
f 86/120/135 96/118/132 112/140/136
f 96/118/132 110/136/131 112/140/136

usemtl metalPurple

f 54/143/137 113/142/137 53/141/137
f 113/142/137 54/143/137 57/144/137
f 57/144/137 54/143/137 50/145/137
f 57/144/137 50/145/137 51/146/137
f 57/144/137 51/146/137 45/147/137
f 57/144/137 45/147/137 46/148/137
f 57/144/137 46/148/137 55/149/137
f 57/144/137 55/149/137 52/150/137
f 57/144/137 52/150/137 47/151/137
f 57/144/137 47/151/137 48/152/137
f 57/144/137 48/152/137 49/153/137
f 57/144/137 49/153/137 56/154/137
f 22/157/138 28/156/138 114/155/138
f 28/156/138 22/157/138 25/158/138
f 25/158/138 22/157/138 17/159/138
f 17/159/138 22/157/138 20/160/138
f 20/160/138 22/157/138 9/161/138
f 9/161/138 22/157/138 12/162/138
f 12/162/138 22/157/138 58/163/138
f 58/163/138 22/157/138 60/164/138
f 60/164/138 22/157/138 59/165/138
f 59/165/138 22/157/138 23/166/138
f 23/166/138 22/157/138 13/167/138
f 13/167/138 22/157/138 16/168/138
f 28/171/139 113/170/139 114/169/139
f 113/170/139 28/171/139 53/172/139
f 53/172/139 28/171/139 27/173/139
f 53/172/139 27/173/139 38/174/139
f 29/177/140 113/176/140 57/175/140
f 113/176/140 29/177/140 114/178/140
f 114/178/140 29/177/140 21/179/140
f 114/178/140 21/179/140 22/180/140
f 106/183/141 115/182/141 105/181/141
f 115/182/141 106/183/141 109/184/141
f 109/184/141 106/183/141 102/185/141
f 109/184/141 102/185/141 103/186/141
f 109/184/141 103/186/141 97/187/141
f 109/184/141 97/187/141 98/188/141
f 109/184/141 98/188/141 107/189/141
f 109/184/141 107/189/141 104/190/141
f 109/184/141 104/190/141 99/191/141
f 109/184/141 99/191/141 100/192/141
f 109/184/141 100/192/141 101/193/141
f 109/184/141 101/193/141 108/194/141
f 74/197/142 80/196/142 116/195/142
f 80/196/142 74/197/142 77/198/142
f 77/198/142 74/197/142 69/199/142
f 69/199/142 74/197/142 72/200/142
f 72/200/142 74/197/142 61/201/142
f 61/201/142 74/197/142 64/202/142
f 64/202/142 74/197/142 110/203/142
f 110/203/142 74/197/142 112/204/142
f 112/204/142 74/197/142 111/205/142
f 111/205/142 74/197/142 75/206/142
f 75/206/142 74/197/142 65/207/142
f 65/207/142 74/197/142 68/208/142
f 80/211/143 115/210/143 116/209/143
f 115/210/143 80/211/143 105/212/143
f 105/212/143 80/211/143 79/213/143
f 105/212/143 79/213/143 90/214/143
f 81/217/144 115/216/144 109/215/144
f 115/216/144 81/217/144 116/218/144
f 116/218/144 81/217/144 73/219/144
f 116/218/144 73/219/144 74/220/144

