# Created by Kenney (www.kenney.nl)

mtllib ankles.mtl

g mergedBlocks

v 0.1299038 1 -0.075
v 0.1299038 0 -0.075
v 0.1448889 1 -0.03882286
v 0.1448889 0 -0.03882286
v 0.15 1 0
v 0.15 0 0
v 0.1448889 1 0.03882286
v 0.1448889 0 0.03882286
v 0.1299038 1 0.075
v 0.1299038 0 0.075
v 0.106066 0 -0.106066
v 0.106066 1 -0.106066
v 0.106066 1 0.106066
v 0.106066 0 0.106066
v 0.075 0 0.1299038
v 0.075 1 0.1299038
v 0.03882286 0 0.1448889
v 0.03882286 1 0.1448889
v 0 0 0.15
v 0 1 0.15
v -0.03882286 0 0.1448889
v -0.03882286 1 0.1448889
v 0.075 1 -0.1299038
v 0.075 0 -0.1299038
v 0.03882286 1 -0.1448889
v 0.03882286 0 -0.1448889
v 0 1 -0.15
v 0 0 -0.15
v -0.03882286 1 -0.1448889
v -0.03882286 0 -0.1448889
v -0.075 0 0.1299038
v -0.075 1 0.1299038
v -0.106066 0 0.106066
v -0.106066 1 0.106066
v -0.1299038 1 0.075
v -0.1299038 0 0.075
v -0.1448889 1 0.03882286
v -0.1448889 0 0.03882286
v -0.15 1 0
v -0.15 0 0
v -0.1448889 1 -0.03882286
v -0.1448889 0 -0.03882286
v -0.1299038 1 -0.075
v -0.1299038 0 -0.075
v -0.106066 1 -0.106066
v -0.106066 0 -0.106066
v -0.075 0 -0.1299038
v -0.075 1 -0.1299038
v 0.08897708 -5.414336E-16 0
v 0.08594526 -5.414336E-16 0.02302896
v 0.07705641 -5.414336E-16 0.04448854
v 0.06291629 -5.414336E-16 0.06291629
v 0.04448854 -5.414336E-16 0.07705641
v 0.02302896 -5.414336E-16 0.08594526
v -1.082867E-16 -5.414336E-16 0.08897708
v -0.02302896 -5.414336E-16 0.08594526
v -0.04448854 -5.414336E-16 0.07705641
v -0.06291629 -5.414336E-16 0.06291629
v -0.07705641 -5.414336E-16 0.04448854
v -0.08594526 -5.414336E-16 0.02302896
v -0.08897708 -5.414336E-16 2.165734E-16
v -0.08594526 -5.414336E-16 -0.02302896
v -0.07705641 -5.414336E-16 -0.04448854
v -0.06291629 -5.414336E-16 -0.06291629
v -0.04448854 -5.414336E-16 -0.07705641
v -0.02302896 -5.414336E-16 -0.08594526
v 5.414336E-17 -5.414336E-16 -0.08897708
v 0.02302896 -5.414336E-16 -0.08594526
v 0.04448854 -5.414336E-16 -0.07705641
v 0.06291629 -5.414336E-16 -0.06291629
v 0.07705641 -5.414336E-16 -0.04448854
v 0.08594526 -5.414336E-16 -0.02302896
v 0.08897708 1 0
v 0.08594526 1 -0.02302896
v 0.07705641 1 -0.04448854
v 0.06291629 1 -0.06291629
v 0.04448854 1 -0.07705641
v 0.02302896 1 -0.08594526
v 5.414336E-17 1 -0.08897708
v -0.02302896 1 -0.08594526
v -0.04448854 1 -0.07705641
v -0.06291629 1 -0.06291629
v -0.07705641 1 -0.04448854
v -0.08594526 1 -0.02302896
v -0.08897708 1 2.165734E-16
v -0.08594526 1 0.02302896
v -0.07705641 1 0.04448854
v -0.06291629 1 0.06291629
v -0.04448854 1 0.07705641
v -0.02302896 1 0.08594526
v -1.082867E-16 1 0.08897708
v 0.02302896 1 0.08594526
v 0.04448854 1 0.07705641
v 0.06291629 1 0.06291629
v 0.07705641 1 0.04448854
v 0.08594526 1 0.02302896
v 0.32805 0.716 0
v 0.3168719 0.716 -0.1048217
v 0.3168719 0.716 0.1048217
v 0.2840996 0.716 0.2025
v 0.2840996 0.716 -0.2025
v 0.2319664 0.716 0.2863782
v 0.2319664 0.716 -0.2863782
v 0.164025 0.716 0.3507403
v 0.164025 0.716 -0.3507403
v 0.08490559 0.716 0.3911999
v 0.08490559 0.716 -0.3911999
v 0 0.716 0.405
v 0 0.716 -0.405
v -0.08490559 0.716 0.3911999
v -0.08490559 0.716 -0.3911999
v -0.164025 0.716 0.3507403
v -0.164025 0.716 -0.3507403
v -0.2319664 0.716 0.2863782
v -0.2319664 0.716 -0.2863782
v -0.2840996 0.716 0.2025
v -0.2840996 0.716 -0.2025
v -0.3168719 0.716 0.1048217
v -0.3168719 0.716 -0.1048217
v -0.32805 0.716 0
v 0.164025 1.22 0
v 0.158436 1.22 0.05241086
v 0.158436 1.22 -0.05241086
v 0.1420498 1.22 -0.10125
v 0.1420498 1.22 0.10125
v 0.1159832 1.22 -0.1431891
v 0.1159832 1.22 0.1431891
v 0.0820125 1.22 -0.1753702
v 0.0820125 1.22 0.1753702
v 0.04245279 1.22 -0.1956
v 0.04245279 1.22 0.1956
v -1.894584E-15 1.22 -0.2025
v -1.894584E-15 1.22 0.2025
v -0.04245279 1.22 -0.1956
v -0.04245279 1.22 0.1956
v -0.0820125 1.22 -0.1753702
v -0.0820125 1.22 0.1753702
v -0.1159832 1.22 -0.1431891
v -0.1159832 1.22 0.1431891
v -0.1420498 1.22 -0.10125
v -0.1420498 1.22 0.10125
v -0.158436 1.22 -0.05241086
v -0.158436 1.22 0.05241086
v -0.164025 1.22 0

vn 0.8660254 0 -0.5
vn 0.9659259 0 -0.2588191
vn 1 0 0
vn 0.9659259 0 0.2588191
vn 0.8660254 0 0.5
vn 0.7071068 0 -0.7071068
vn 0.7071068 0 0.7071068
vn 0.5 0 0.8660254
vn 0.2588191 0 0.9659259
vn 0 0 1
vn -0.2588191 0 0.9659259
vn 0.5 0 -0.8660254
vn 0.2588191 0 -0.9659259
vn 0 0 -1
vn -0.2588191 0 -0.9659259
vn -0.5 0 0.8660254
vn -0.7071068 0 0.7071068
vn -0.8660254 0 0.5
vn -0.9659259 0 0.2588191
vn -1 0 0
vn -0.9659259 0 -0.2588191
vn -0.8660254 0 -0.5
vn -0.7071068 0 -0.7071068
vn -0.5 0 -0.8660254
vn 0 -1 0
vn 0 1 0
vn 0.857518 0.3222494 -0.4010214
vn 0.9282264 0.3127445 -0.2014612
vn 0.7316774 0.336755 -0.5926586
vn 0.5429684 0.3534142 -0.7617635
vn 0.2921104 0.3673078 -0.8830382
vn 0 0.3728186 -0.9279042
vn -0.2921104 0.3673078 -0.8830382
vn -0.5429684 0.3534142 -0.7617635
vn -0.7316774 0.336755 -0.5926586
vn -0.857518 0.3222494 -0.4010214
vn -0.9282264 0.3127445 -0.2014612
vn -0.9509093 0.30947 0
vn -0.9282264 0.3127445 0.2014612
vn -0.857518 0.3222494 0.4010214
vn -0.7316774 0.336755 0.5926586
vn -0.5429684 0.3534142 0.7617635
vn -0.2921104 0.3673078 0.8830382
vn 0 0.3728186 0.9279042
vn 0.2921104 0.3673078 0.8830382
vn 0.5429684 0.3534142 0.7617635
vn 0.7316774 0.336755 0.5926586
vn 0.857518 0.3222494 0.4010214
vn 0.9282264 0.3127445 0.2014612
vn 0.9509093 0.30947 0

vt 0.075 1
vt 0.075 0
vt 0.03882286 1
vt 0.03882286 0
vt 0 1
vt 0 0
vt -0.03882286 1
vt -0.03882286 0
vt -0.075 1
vt -0.075 0
vt 0.106066 0
vt 0.106066 1
vt -0.106066 1
vt -0.106066 0
vt -0.106066 -0.106066
vt -0.08897708 0
vt -0.075 -0.1299038
vt -0.08594526 -0.02302896
vt -0.07705641 -0.04448854
vt -0.06291629 -0.06291629
vt -0.03882286 -0.1448889
vt -0.04448854 -0.07705641
vt -0.02302896 -0.08594526
vt 0 -0.15
vt 1.082867E-16 -0.08897708
vt 0.03882286 -0.1448889
vt 0.02302896 -0.08594526
vt 0.04448854 -0.07705641
vt 0.075 -0.1299038
vt 0.06291629 -0.06291629
vt 0.07705641 -0.04448854
vt 0.106066 -0.106066
vt 0.08594526 -0.02302896
vt 0.08897708 -2.165734E-16
vt 0.106066 0.106066
vt 0.08594526 0.02302896
vt 0.07705641 0.04448854
vt 0.075 0.1299038
vt 0.06291629 0.06291629
vt 0.04448854 0.07705641
vt 0.03882286 0.1448889
vt 0.02302896 0.08594526
vt 0 0.15
vt -5.414336E-17 0.08897708
vt -0.02302896 0.08594526
vt -0.03882286 0.1448889
vt -0.04448854 0.07705641
vt -0.06291629 0.06291629
vt -0.075 0.1299038
vt -0.07705641 0.04448854
vt -0.08594526 0.02302896
vt -0.106066 0.106066
vt -0.1299038 -0.075
vt -0.1299038 0.075
vt -0.1448889 -0.03882286
vt -0.1448889 0.03882286
vt -0.15 0
vt 0.1299038 -0.075
vt 0.1299038 0.075
vt 0.1448889 -0.03882286
vt 0.1448889 0.03882286
vt 0.15 0
vt -5.414336E-17 -0.08897708
vt 0.08897708 2.165734E-16
vt 1.082867E-16 0.08897708
vt -0.04448854 -5.414336E-16
vt -0.06291629 -5.414336E-16
vt -0.04448854 1
vt -0.06291629 1
vt 0.06291629 1
vt 0.06291629 -5.414336E-16
vt 0.04448854 1
vt 0.04448854 -5.414336E-16
vt 0.02302896 1
vt 0.02302896 -5.414336E-16
vt 0 -5.414336E-16
vt -0.02302896 1
vt -0.02302896 -5.414336E-16
vt 5.414336E-17 -5.414336E-16
vt 5.414336E-17 1
vt -2.165734E-16 1
vt -2.165734E-16 -5.414336E-16
vt 1.082867E-16 -5.414336E-16
vt 1.082867E-16 1
vt -0.32805 0
vt -0.3168719 0.1048217
vt -0.3168719 -0.1048217
vt -0.2840996 -0.2025
vt -0.2840996 0.2025
vt -0.2319664 -0.2863782
vt -0.2319664 0.2863782
vt -0.164025 -0.3507403
vt -0.164025 0.3507403
vt -0.08490559 -0.3911999
vt -0.08490559 0.3911999
vt 0 -0.405
vt 0 0.405
vt 0.08490559 -0.3911999
vt 0.08490559 0.3911999
vt 0.164025 -0.3507403
vt 0.164025 0.3507403
vt 0.2319664 -0.2863782
vt 0.2319664 0.2863782
vt 0.2840996 -0.2025
vt 0.2840996 0.2025
vt 0.3168719 -0.1048217
vt 0.3168719 0.1048217
vt 0.32805 0
vt -0.164025 0
vt -0.158436 0.05241086
vt -0.158436 -0.05241086
vt -0.1420498 -0.10125
vt -0.1420498 0.10125
vt -0.1159832 -0.1431891
vt -0.1159832 0.1431891
vt -0.0820125 -0.1753702
vt -0.0820125 0.1753702
vt -0.04245279 -0.1956
vt -0.04245279 0.1956
vt 1.894584E-15 -0.2025
vt 1.894584E-15 0.2025
vt 0.04245279 -0.1956
vt 0.04245279 0.1956
vt 0.0820125 -0.1753702
vt 0.0820125 0.1753702
vt 0.1159832 -0.1431891
vt 0.1159832 0.1431891
vt 0.1420498 -0.10125
vt 0.1420498 0.10125
vt 0.158436 -0.05241086
vt 0.158436 0.05241086
vt 0.164025 0
vt 0.2025 0.716
vt 0.1048217 0.716
vt 0.10125 1.22
vt 0.05241086 1.22
vt 0.1431891 1.22
vt 0.2863782 0.716
vt -0.1159832 1.22
vt -0.0820125 1.22
vt -0.2319664 0.716
vt -0.164025 0.716
vt -0.04245279 1.22
vt -0.08490559 0.716
vt 1.894584E-15 1.22
vt 0 0.716
vt 0.04245279 1.22
vt 0.08490559 0.716
vt 0.0820125 1.22
vt 0.164025 0.716
vt 0.1159832 1.22
vt 0.2319664 0.716
vt -0.2863782 0.716
vt -0.1431891 1.22
vt -0.2025 0.716
vt -0.10125 1.22
vt -0.1048217 0.716
vt -0.05241086 1.22
vt 0 1.22
vt -1.894584E-15 1.22

usemtl _defaultMat

f 3/3/2 2/2/1 1/1/1
f 2/2/1 3/3/2 4/4/2
f 5/5/3 4/4/2 3/3/2
f 4/4/2 5/5/3 6/6/3
f 7/7/4 6/6/3 5/5/3
f 6/6/3 7/7/4 8/8/4
f 9/9/5 8/8/4 7/7/4
f 8/8/4 9/9/5 10/10/5
f 11/11/6 1/1/1 2/2/1
f 1/1/1 11/11/6 12/12/6
f 13/13/7 10/10/5 9/9/5
f 10/10/5 13/13/7 14/14/7
f 13/12/7 15/2/8 14/11/7
f 15/2/8 13/12/7 16/1/8
f 16/1/8 17/4/9 15/2/8
f 17/4/9 16/1/8 18/3/9
f 18/3/9 19/6/10 17/4/9
f 19/6/10 18/3/9 20/5/10
f 20/5/10 21/8/11 19/6/10
f 21/8/11 20/5/10 22/7/11
f 11/14/6 23/9/12 12/13/6
f 23/9/12 11/14/6 24/10/12
f 24/10/12 25/7/13 23/9/12
f 25/7/13 24/10/12 26/8/13
f 26/8/13 27/5/14 25/7/13
f 27/5/14 26/8/13 28/6/14
f 28/6/14 29/3/15 27/5/14
f 29/3/15 28/6/14 30/4/15
f 22/7/11 31/10/16 21/8/11
f 31/10/16 22/7/11 32/9/16
f 32/9/16 33/14/17 31/10/16
f 33/14/17 32/9/16 34/13/17
f 35/1/18 33/11/17 34/12/17
f 33/11/17 35/1/18 36/2/18
f 37/3/19 36/2/18 35/1/18
f 36/2/18 37/3/19 38/4/19
f 39/5/20 38/4/19 37/3/19
f 38/4/19 39/5/20 40/6/20
f 41/7/21 40/6/20 39/5/20
f 40/6/20 41/7/21 42/8/21
f 43/9/22 42/8/21 41/7/21
f 42/8/21 43/9/22 44/10/22
f 45/13/23 44/10/22 43/9/22
f 44/10/22 45/13/23 46/14/23
f 45/12/23 47/2/24 46/11/23
f 47/2/24 45/12/23 48/1/24
f 48/1/24 30/4/15 47/2/24
f 30/4/15 48/1/24 29/3/15
f 15/17/25 49/16/25 14/15/25
f 49/16/25 15/17/25 50/18/25
f 50/18/25 15/17/25 51/19/25
f 51/19/25 15/17/25 52/20/25
f 52/20/25 15/17/25 17/21/25
f 52/20/25 17/21/25 53/22/25
f 53/22/25 17/21/25 54/23/25
f 54/23/25 17/21/25 19/24/25
f 54/23/25 19/24/25 55/25/25
f 55/25/25 19/24/25 21/26/25
f 55/25/25 21/26/25 56/27/25
f 56/27/25 21/26/25 57/28/25
f 57/28/25 21/26/25 31/29/25
f 57/28/25 31/29/25 58/30/25
f 58/30/25 31/29/25 59/31/25
f 59/31/25 31/29/25 33/32/25
f 59/31/25 33/32/25 60/33/25
f 60/33/25 33/32/25 61/34/25
f 46/35/25 61/34/25 33/32/25
f 46/35/25 62/36/25 61/34/25
f 46/35/25 63/37/25 62/36/25
f 47/38/25 63/37/25 46/35/25
f 47/38/25 64/39/25 63/37/25
f 47/38/25 65/40/25 64/39/25
f 30/41/25 65/40/25 47/38/25
f 30/41/25 66/42/25 65/40/25
f 28/43/25 66/42/25 30/41/25
f 28/43/25 67/44/25 66/42/25
f 28/43/25 68/45/25 67/44/25
f 26/46/25 68/45/25 28/43/25
f 26/46/25 69/47/25 68/45/25
f 26/46/25 70/48/25 69/47/25
f 24/49/25 70/48/25 26/46/25
f 24/49/25 71/50/25 70/48/25
f 24/49/25 72/51/25 71/50/25
f 24/49/25 49/16/25 72/51/25
f 24/49/25 14/15/25 49/16/25
f 11/52/25 14/15/25 24/49/25
f 11/52/25 10/53/25 14/15/25
f 2/54/25 10/53/25 11/52/25
f 2/54/25 8/55/25 10/53/25
f 4/56/25 8/55/25 2/54/25
f 8/55/25 4/56/25 6/57/25
f 46/35/25 33/32/25 36/58/25
f 46/35/25 36/58/25 44/59/25
f 44/59/25 36/58/25 38/60/25
f 44/59/25 38/60/25 42/61/25
f 42/61/25 38/60/25 40/62/25
f 3/55/26 7/56/26 5/57/26
f 7/56/26 3/55/26 1/53/26
f 7/56/26 1/53/26 9/54/26
f 9/54/26 1/53/26 12/15/26
f 9/54/26 12/15/26 13/52/26
f 13/52/26 12/15/26 23/17/26
f 13/52/26 23/17/26 73/16/26
f 73/16/26 23/17/26 74/18/26
f 74/18/26 23/17/26 75/19/26
f 75/19/26 23/17/26 76/20/26
f 76/20/26 23/17/26 25/21/26
f 76/20/26 25/21/26 77/22/26
f 77/22/26 25/21/26 78/23/26
f 78/23/26 25/21/26 27/24/26
f 78/23/26 27/24/26 79/63/26
f 79/63/26 27/24/26 80/27/26
f 80/27/26 27/24/26 29/26/26
f 80/27/26 29/26/26 81/28/26
f 81/28/26 29/26/26 48/29/26
f 81/28/26 48/29/26 82/30/26
f 82/30/26 48/29/26 83/31/26
f 83/31/26 48/29/26 45/32/26
f 83/31/26 45/32/26 84/33/26
f 84/33/26 45/32/26 85/64/26
f 34/35/26 85/64/26 45/32/26
f 34/35/26 86/36/26 85/64/26
f 34/35/26 87/37/26 86/36/26
f 32/38/26 87/37/26 34/35/26
f 32/38/26 88/39/26 87/37/26
f 32/38/26 89/40/26 88/39/26
f 22/41/26 89/40/26 32/38/26
f 22/41/26 90/42/26 89/40/26
f 22/41/26 91/65/26 90/42/26
f 20/43/26 91/65/26 22/41/26
f 20/43/26 92/45/26 91/65/26
f 18/46/26 92/45/26 20/43/26
f 18/46/26 93/47/26 92/45/26
f 18/46/26 94/48/26 93/47/26
f 16/49/26 94/48/26 18/46/26
f 16/49/26 95/50/26 94/48/26
f 16/49/26 96/51/26 95/50/26
f 16/49/26 73/16/26 96/51/26
f 73/16/26 16/49/26 13/52/26
f 34/35/26 45/32/26 43/58/26
f 34/35/26 43/58/26 35/59/26
f 35/59/26 43/58/26 41/60/26
f 35/59/26 41/60/26 37/61/26
f 37/61/26 41/60/26 39/62/26
f 93/68/24 52/67/23 53/66/24
f 52/67/23 93/68/24 94/69/23
f 95/72/22 52/71/23 94/70/23
f 52/71/23 95/72/22 51/73/22
f 96/74/21 51/73/22 95/72/22
f 51/73/22 96/74/21 50/75/21
f 73/5/20 50/75/21 96/74/21
f 50/75/21 73/5/20 49/76/20
f 74/77/19 49/76/20 73/5/20
f 49/76/20 74/77/19 72/78/19
f 75/68/18 72/78/19 74/77/19
f 72/78/19 75/68/18 71/66/18
f 76/69/17 71/66/18 75/68/18
f 71/66/18 76/69/17 70/67/17
f 76/70/17 69/73/16 70/71/17
f 69/73/16 76/70/17 77/72/16
f 77/72/16 68/75/11 69/73/16
f 68/75/11 77/72/16 78/74/11
f 78/74/11 67/79/10 68/75/11
f 67/79/10 78/74/11 79/80/10
f 79/80/10 66/78/9 67/79/10
f 66/78/9 79/80/10 80/77/9
f 80/77/9 65/66/8 66/78/9
f 65/66/8 80/77/9 81/68/8
f 81/68/8 64/67/7 65/66/8
f 64/67/7 81/68/8 82/69/7
f 83/72/5 64/71/7 82/70/7
f 64/71/7 83/72/5 63/73/5
f 84/74/4 63/73/5 83/72/5
f 63/73/5 84/74/4 62/75/4
f 85/81/3 62/75/4 84/74/4
f 62/75/4 85/81/3 61/82/3
f 86/77/2 61/82/3 85/81/3
f 61/82/3 86/77/2 60/78/2
f 87/68/1 60/78/2 86/77/2
f 60/78/2 87/68/1 59/66/1
f 88/69/6 59/66/1 87/68/1
f 59/66/1 88/69/6 58/67/6
f 88/70/6 57/73/12 58/71/6
f 57/73/12 88/70/6 89/72/12
f 89/72/12 56/75/13 57/73/12
f 56/75/13 89/72/12 90/74/13
f 90/74/13 55/83/14 56/75/13
f 55/83/14 90/74/13 91/84/14
f 91/84/14 54/78/15 55/83/14
f 54/78/15 91/84/14 92/77/15
f 92/77/15 53/66/24 54/78/15
f 53/66/24 92/77/15 93/68/24
f 99/87/25 98/86/25 97/85/25
f 98/86/25 99/87/25 100/88/25
f 98/86/25 100/88/25 101/89/25
f 101/89/25 100/88/25 102/90/25
f 101/89/25 102/90/25 103/91/25
f 103/91/25 102/90/25 104/92/25
f 103/91/25 104/92/25 105/93/25
f 105/93/25 104/92/25 106/94/25
f 105/93/25 106/94/25 107/95/25
f 107/95/25 106/94/25 108/96/25
f 107/95/25 108/96/25 109/97/25
f 109/97/25 108/96/25 110/98/25
f 109/97/25 110/98/25 111/99/25
f 111/99/25 110/98/25 112/100/25
f 111/99/25 112/100/25 113/101/25
f 113/101/25 112/100/25 114/102/25
f 113/101/25 114/102/25 115/103/25
f 115/103/25 114/102/25 116/104/25
f 115/103/25 116/104/25 117/105/25
f 117/105/25 116/104/25 118/106/25
f 117/105/25 118/106/25 119/107/25
f 119/107/25 118/106/25 120/108/25
f 123/111/26 122/110/26 121/109/26
f 122/110/26 123/111/26 124/112/26
f 122/110/26 124/112/26 125/113/26
f 125/113/26 124/112/26 126/114/26
f 125/113/26 126/114/26 127/115/26
f 127/115/26 126/114/26 128/116/26
f 127/115/26 128/116/26 129/117/26
f 129/117/26 128/116/26 130/118/26
f 129/117/26 130/118/26 131/119/26
f 131/119/26 130/118/26 132/120/26
f 131/119/26 132/120/26 133/121/26
f 133/121/26 132/120/26 134/122/26
f 133/121/26 134/122/26 135/123/26
f 135/123/26 134/122/26 136/124/26
f 135/123/26 136/124/26 137/125/26
f 137/125/26 136/124/26 138/126/26
f 137/125/26 138/126/26 139/127/26
f 139/127/26 138/126/26 140/128/26
f 139/127/26 140/128/26 141/129/26
f 141/129/26 140/128/26 142/130/26
f 141/129/26 142/130/26 143/131/26
f 143/131/26 142/130/26 144/132/26
f 124/135/27 98/134/28 101/133/27
f 98/134/28 124/135/27 123/136/28
f 101/133/27 126/137/29 124/135/27
f 126/137/29 101/133/27 103/138/29
f 103/141/29 128/140/30 126/139/29
f 128/140/30 103/141/29 105/142/30
f 105/142/30 130/143/31 128/140/30
f 130/143/31 105/142/30 107/144/31
f 107/144/31 132/145/32 130/143/31
f 132/145/32 107/144/31 109/146/32
f 109/146/32 134/147/33 132/145/32
f 134/147/33 109/146/32 111/148/33
f 111/148/33 136/149/34 134/147/33
f 136/149/34 111/148/33 113/150/34
f 113/150/34 138/151/35 136/149/34
f 138/151/35 113/150/34 115/152/35
f 117/155/36 138/154/35 115/153/35
f 138/154/35 117/155/36 140/156/36
f 119/157/37 140/156/36 117/155/36
f 140/156/36 119/157/37 142/158/37
f 120/146/38 142/158/37 119/157/37
f 142/158/37 120/146/38 144/159/38
f 118/134/39 144/159/38 120/146/38
f 144/159/38 118/134/39 143/136/39
f 118/134/39 141/135/40 143/136/39
f 141/135/40 118/134/39 116/133/40
f 116/133/40 139/137/41 141/135/40
f 139/137/41 116/133/40 114/138/41
f 114/141/41 137/140/42 139/139/41
f 137/140/42 114/141/41 112/142/42
f 112/142/42 135/143/43 137/140/42
f 135/143/43 112/142/42 110/144/43
f 110/144/43 133/160/44 135/143/43
f 133/160/44 110/144/43 108/146/44
f 108/146/44 131/147/45 133/160/44
f 131/147/45 108/146/44 106/148/45
f 106/148/45 129/149/46 131/147/45
f 129/149/46 106/148/45 104/150/46
f 104/150/46 127/151/47 129/149/46
f 127/151/47 104/150/46 102/152/47
f 100/155/48 127/154/47 102/153/47
f 127/154/47 100/155/48 125/156/48
f 99/157/49 125/156/48 100/155/48
f 125/156/48 99/157/49 122/158/49
f 97/146/50 122/158/49 99/157/49
f 122/158/49 97/146/50 121/159/50
f 97/146/50 123/136/28 121/159/50
f 123/136/28 97/146/50 98/134/28

